<svg width="720" height="720" viewBox="0 0 720 720" fill="none" xmlns="http://www.w3.org/2000/svg">
  <defs>
    <linearGradient id="face" x1="220" y1="168" x2="520" y2="576" gradientUnits="userSpaceOnUse">
      <stop offset="0" stop-color="#6C63FF"/>
      <stop offset="1" stop-color="#00D4FF"/>
    </linearGradient>
    <filter id="glow" x="88" y="88" width="544" height="544" filterUnits="userSpaceOnUse">
      <feGaussianBlur stdDeviation="22"/>
    </filter>
  </defs>
  <g opacity="0.22" filter="url(#glow)">
    <path d="M360 128L500 208L544 360L500 520L360 596L220 520L176 360L220 208L360 128Z" fill="url(#face)"/>
  </g>
  <path d="M360 140L496 218L536 360L496 502L360 580L224 502L184 360L224 218L360 140Z" fill="#0D0D1A" stroke="url(#face)" stroke-width="4"/>
  <path d="M360 222L430 268L452 350L424 446L360 500L296 446L268 350L290 268L360 222Z" fill="#0A0A16" stroke="#4450A8" stroke-opacity="0.7" stroke-width="2"/>
  <path d="M300 334L340 324L360 338L380 324L420 334" stroke="#F0F0FF" stroke-opacity="0.6" stroke-width="3" stroke-linecap="round"/>
  <path d="M320 400L360 422L400 400" stroke="#6C63FF" stroke-width="4" stroke-linecap="round"/>
  <g>
    <path d="M286 310L334 294L344 324L300 342L286 310Z" fill="#00D4FF"/>
    <path d="M434 310L386 294L376 324L420 342L434 310Z" fill="#6C63FF"/>
    <path d="M286 310L334 294L344 324L300 342L286 310Z" fill-opacity="0.35" fill="#F0F0FF"/>
    <path d="M434 310L386 294L376 324L420 342L434 310Z" fill-opacity="0.35" fill="#F0F0FF"/>
  </g>
</svg>
